<!-- <svg width="40" height="40" viewBox="0 0 40 40" fill="none" xmlns="http://www.w3.org/2000/svg">
<path fill-rule="evenodd" clip-rule="evenodd" d="M9.07022 0H1.79853L0.0266332 27.3908C-0.0806154 29.0054 0.136789 30.6254 0.665344 32.1502C1.1939 33.675 2.02232 35.072 3.09915 36.2545C4.17598 37.437 5.47824 38.3796 6.92503 39.024C8.37183 39.6683 9.93228 40.0005 11.5095 40H28.4921C30.0672 40.0003 31.6256 39.6687 33.0707 39.0258C34.5159 38.383 35.817 37.4424 36.8935 36.2626C37.97 35.0827 38.7989 33.6886 39.329 32.1666C39.859 30.6446 40.0789 29.0271 39.9749 27.4144L38.18 0H9.07022ZM9.07022 2.36127H3.96163L2.3278 27.5561C2.24269 28.847 2.41697 30.1421 2.83983 31.3611C3.26269 32.58 3.92512 33.6968 4.78602 34.6422C5.64693 35.5876 6.68795 36.3414 7.84451 36.8569C9.00108 37.3723 10.2485 37.6384 11.5095 37.6387H28.4921C29.755 37.6417 31.0049 37.3779 32.1642 36.8639C33.3235 36.3499 34.3673 35.5966 35.2307 34.6509C36.0941 33.7051 36.7585 32.5872 37.1828 31.3666C37.6071 30.1461 37.782 28.849 37.6968 27.5561L36.0399 2.36127H30.9313V3.84888C30.9313 5.32179 30.6486 6.78028 30.0993 8.14108C29.55 9.50187 28.7448 10.7383 27.7298 11.7798C26.7148 12.8213 25.5099 13.6475 24.1837 14.2112C22.8576 14.7748 21.4362 15.0649 20.0008 15.0649C18.5654 15.0649 17.144 14.7748 15.8178 14.2112C14.4917 13.6475 13.2867 12.8213 12.2717 11.7798C11.2567 10.7383 10.4516 9.50187 9.90226 8.14108C9.35295 6.78028 9.07022 5.32179 9.07022 3.84888V2.36127ZM28.6302 2.36127H11.3714V3.84888C11.3714 6.19731 12.2806 8.44956 13.8989 10.1102C15.5172 11.7707 17.7121 12.7037 20.0008 12.7037C22.2894 12.7037 24.4843 11.7707 26.1027 10.1102C27.721 8.44956 28.6302 6.19731 28.6302 3.84888V2.36127Z" fill="black"/>
</svg> -->
<?xml version="1.0" ?><!DOCTYPE svg  PUBLIC '-//W3C//DTD SVG 1.1//EN'  'http://www.w3.org/Graphics/SVG/1.1/DTD/svg11.dtd'><svg height="100%" style="fill-rule:evenodd;clip-rule:evenodd;stroke-linejoin:round;stroke-miterlimit:1.41421;" version="1.1" viewBox="0 0 129 128" width="100%" xml:space="preserve" xmlns="http://www.w3.org/2000/svg" xmlns:serif="http://www.serif.com/" xmlns:xlink="http://www.w3.org/1999/xlink"><rect height="128" id="Cart" style="fill:none;" width="128" x="0.161" y="0"/><path d="M55.303,88.501c7.246,0.141 13.207,8.644 9.772,15.768c-2.882,5.976 -11.716,8.111 -17.012,3.633c-6.552,-5.541 -3.507,-19.198 6.956,-19.401c0.143,-0.001 0.142,-0.001 0.284,0Zm43.507,0c7.246,0.141 13.207,8.644 9.772,15.768c-2.881,5.976 -11.715,8.111 -17.011,3.633c-6.553,-5.541 -3.507,-19.198 6.955,-19.401c0.142,-0.001 0.142,-0.001 0.284,0Zm-43.739,4c-5.313,0.103 -9.241,7.669 -4.799,12.007c4.366,4.262 14.869,-0.429 11.199,-8.04c-1.152,-2.389 -3.716,-3.984 -6.4,-3.967Zm43.507,0c-5.305,0.103 -9.241,7.669 -4.798,12.007c4.365,4.262 14.868,-0.429 11.199,-8.04c-1.152,-2.389 -3.715,-3.984 -6.401,-3.967Zm18.075,-7.001l-75.394,0c-3.002,-0.058 -4.882,-4.291 -2.361,-6.491l7.554,-6.331c-3.368,-15.116 -6.489,-30.288 -10.105,-45.346c-0.836,-3.323 -4.022,-5.813 -7.445,-5.832l-17.234,0c-2.127,-0.152 -2.496,-3.821 0,-4c5.789,0 11.578,-0.031 17.367,0.001c5.187,0.084 9.994,3.866 11.227,9l1.563,7.015c0.053,-0.007 0.107,-0.013 0.162,-0.016c23.368,0 46.736,-0.147 70.104,0c3.412,0.065 6.453,3.039 6.56,6.477c0.152,7.757 0.003,15.517 0.003,23.275c-0.042,3.313 -2.705,6.276 -6.059,6.61l-63.125,5.505l-7.317,6.133l74.5,0c0.008,0.001 1.151,0.09 1.683,0.919c0.765,1.191 -0.152,2.971 -1.683,3.081Zm-73.941,-48l7.528,33.786c20.688,-1.792 41.397,-3.361 62.061,-5.415c1.271,-0.156 2.306,-1.28 2.352,-2.566c0.096,-7.753 0.241,-15.511 -0.001,-23.26c-0.061,-1.345 -1.247,-2.519 -2.612,-2.545l-69.328,0Z" style="fill-rule:nonzero;"/></svg>